# xmcd
#
# Track frame offsets:
#	150
#	12124
#	23673
#	45810
#	59128
#	73930
#	90138
#	112724
#	133731
#	150816
#	165571
#	179224
#	195478
#	205516
#	224250
#
# Disc length: 3172 seconds
#
# Revision: 0
# Processed by: cddbd v1.4PL0 Copyright (c) Steve Scherf et al.
# Submitted via: dBpowerAMP V4.0
#
DISCID=b90c620f
DTITLE=Jeffery P. Ross - My Pleasure
DYEAR=2002
DGENRE=Blues
TTITLE0=Muddy Waters
TTITLE1=Blues Clair
TTITLE2=I Thought I Heard The Angels Cryin'
TTITLE3=Good Boy
TTITLE4=Down In My Soul
TTITLE5=Pay Attention Blues
TTITLE6=Wah Wah Blues
TTITLE7=Jr. Blues
TTITLE8=Take It Easy Baby
TTITLE9=Blue Mood
TTITLE10=Flim Flam
TTITLE11=Backstroke
TTITLE12=Somebody Been Talkin
TTITLE13=Left Eye Jump
TTITLE14=Make It Snappy
EXTD=
EXTT0=
EXTT1=
EXTT2=
EXTT3=
EXTT4=
EXTT5=
EXTT6=
EXTT7=
EXTT8=
EXTT9=
EXTT10=
EXTT11=
EXTT12=
EXTT13=
EXTT14=
PLAYORDER=
